<svg xmlns="http://www.w3.org/2000/svg" viewBox="0 0 139 96.82"><defs><style>.cls-1{fill:#f25f4c;}</style></defs><g id="Layer_2" data-name="Layer 2"><g id="Layer_1-2" data-name="Layer 1"><path class="cls-1" d="M24.3,64.18a4,4,0,0,1-6.6,0L11.43,55a4,4,0,0,1,3.3-6.26H27.27A4,4,0,0,1,30.57,55Z"/><rect class="cls-1" width="80" height="56" rx="10"/><rect class="cls-1" x="48" y="22" width="91" height="63" rx="10"/><path class="cls-1" d="M111.68,95a4,4,0,0,0,6.64,0L126.41,83a4,4,0,0,0-3.32-6.23H106.91A4,4,0,0,0,103.59,83Z"/></g></g></svg>