<svg xmlns="http://www.w3.org/2000/svg" viewBox="0 0 261.59 39.65"><defs><style>.cls-1{fill:#fffffe;}.cls-2{fill:#f25f4c;}</style></defs><g id="Layer_2" data-name="Layer 2"><g id="Layer_1-2" data-name="Layer 1"><path class="cls-1" d="M10.32,39.65A10.27,10.27,0,0,1,4.7,38.21a9.15,9.15,0,0,1-3.36-4A16.67,16.67,0,0,1,0,28.32L4.8,27a23.39,23.39,0,0,0,.62,4A7.76,7.76,0,0,0,7.1,34.18a4.25,4.25,0,0,0,3.22,1.2,4.09,4.09,0,0,0,3.17-1.16,4.86,4.86,0,0,0,1.1-3.4,6.85,6.85,0,0,0-1.2-4.23,21.89,21.89,0,0,0-3-3.26L3.84,17.57A11.11,11.11,0,0,1,1,13.92,11.91,11.91,0,0,1,.1,9,8.77,8.77,0,0,1,2.54,2.35,9.24,9.24,0,0,1,9.22,0a12,12,0,0,1,4,.62,6.84,6.84,0,0,1,2.93,1.83,8.6,8.6,0,0,1,1.87,3.17A16.64,16.64,0,0,1,19,10L14.4,11.28a18.65,18.65,0,0,0-.58-3.5,5,5,0,0,0-1.53-2.6,4.3,4.3,0,0,0-3.07-1,4.37,4.37,0,0,0-3.17,1.1A4.17,4.17,0,0,0,4.94,8.45a6.61,6.61,0,0,0,.58,2.93,9.16,9.16,0,0,0,2,2.35l6.57,5.76A20,20,0,0,1,18,24.1a11.44,11.44,0,0,1,1.68,6.28,10,10,0,0,1-1.2,5,8.06,8.06,0,0,1-3.31,3.16A10,10,0,0,1,10.32,39.65Zm13.42-.43L24.46.34h5.33l6.87,31.53L43.57.34h5.28l.72,38.88H45.2L44.77,11,38.19,39.22H35.12L28.59,11l-.43,28.23Zm29.67,0L61.67.34H66.9l8.31,38.88H70.07l-1.78-9.8H60.37l-1.87,9.8Zm7.68-13.68h6.48L64.31,8ZM88.32,39.65a10.27,10.27,0,0,1-5.62-1.44,9.15,9.15,0,0,1-3.36-4A16.67,16.67,0,0,1,78,28.32L82.8,27a23.39,23.39,0,0,0,.62,4,7.76,7.76,0,0,0,1.68,3.17,4.25,4.25,0,0,0,3.22,1.2,4.09,4.09,0,0,0,3.17-1.16,4.86,4.86,0,0,0,1.1-3.4,6.85,6.85,0,0,0-1.2-4.23,21.89,21.89,0,0,0-3-3.26l-6.53-5.76A11.11,11.11,0,0,1,79,13.92,11.91,11.91,0,0,1,78.1,9a8.77,8.77,0,0,1,2.44-6.63A9.24,9.24,0,0,1,87.22,0a12,12,0,0,1,4,.62,6.84,6.84,0,0,1,2.93,1.83,8.6,8.6,0,0,1,1.87,3.17A16.64,16.64,0,0,1,97,10L92.4,11.28a18.65,18.65,0,0,0-.58-3.5,5,5,0,0,0-1.53-2.6,4.3,4.3,0,0,0-3.07-1,4.37,4.37,0,0,0-3.17,1.1,4.17,4.17,0,0,0-1.11,3.17,6.61,6.61,0,0,0,.58,2.93,9.16,9.16,0,0,0,2,2.35l6.57,5.76A20,20,0,0,1,96,24.1a11.44,11.44,0,0,1,1.68,6.28,10,10,0,0,1-1.2,5,8.06,8.06,0,0,1-3.31,3.16A10,10,0,0,1,88.32,39.65Zm13.52-.43V.34h5.42v16.8h10V.34h5.42V39.22h-5.42V21h-10v18.2Z"/><path class="cls-2" d="M128.75,39.22V.34h5.42v35h9.94v3.89Zm17,0L154,.34h5.23l8.3,38.88h-5.13l-1.78-9.8h-7.92l-1.87,9.8Zm7.68-13.68h6.48L156.61,8Zm18.06,13.68V.34h8.45a14.39,14.39,0,0,1,6.81,1.34,7.31,7.31,0,0,1,3.6,3.94,17,17,0,0,1,1.11,6.57V26.5a19.16,19.16,0,0,1-1.11,7,8.31,8.31,0,0,1-3.5,4.32,12.55,12.55,0,0,1-6.48,1.44Zm5.42-3.89h3.07c2,0,3.4-.39,4.23-1.15a5.17,5.17,0,0,0,1.49-3.36,42.67,42.67,0,0,0,.28-5.33V12.86A25,25,0,0,0,185.56,8a4.14,4.14,0,0,0-1.68-2.74,7.55,7.55,0,0,0-4.08-.86h-2.93Zm19.89,3.89V.34h8.45A14.47,14.47,0,0,1,212,1.68a7.39,7.39,0,0,1,3.6,3.94,17.21,17.21,0,0,1,1.1,6.57V26.5a19.39,19.39,0,0,1-1.1,7,8.38,8.38,0,0,1-3.51,4.32,12.55,12.55,0,0,1-6.48,1.44Zm5.43-3.89h3.07c2,0,3.39-.39,4.22-1.15A5.17,5.17,0,0,0,211,30.82a42.47,42.47,0,0,0,.29-5.33V12.86A24.84,24.84,0,0,0,210.87,8a4.07,4.07,0,0,0-1.68-2.74,7.55,7.55,0,0,0-4.08-.86h-2.92Zm19.88,3.89V.34h15.08v4H227.5V17.23h7.82v3.84H227.5V35.33h9.74v3.89Zm19.55,0V.34h7.82a17,17,0,0,1,6.44,1,7,7,0,0,1,3.74,3.31,12.33,12.33,0,0,1,1.25,6,16.52,16.52,0,0,1-.48,4.12,8,8,0,0,1-1.54,3.12,6,6,0,0,1-2.78,1.83l5.52,19.49h-5.23L251.27,21H247V39.22ZM247,17.09h2.07a10.09,10.09,0,0,0,3.74-.58,3.81,3.81,0,0,0,2.11-2,9,9,0,0,0,.68-3.88q0-3.42-1.25-4.9c-.83-1-2.48-1.54-4.95-1.54H247Z"/></g></g></svg>