<svg xmlns="http://www.w3.org/2000/svg" viewBox="0 0 150.2 84.84"><defs><style>.cls-1{fill:#f25f4c;}</style></defs><g id="Layer_2" data-name="Layer 2"><g id="Layer_1-2" data-name="Layer 1"><ellipse class="cls-1" cx="75.1" cy="21.21" rx="20.42" ry="21.21"/><path class="cls-1" d="M112.81,69.4A52.91,52.91,0,0,1,75.7,84.84C57.85,84.84,44,76.52,37.39,69.4,37.39,51,57.85,36.14,75.7,36.14S112.81,51,112.81,69.4Z"/><ellipse class="cls-1" cx="120.8" cy="20.69" rx="15.92" ry="16.54"/><path class="cls-1" d="M150.2,58.26a41.24,41.24,0,0,1-28.93,12c-13.92,0-24.73-6.49-29.87-12,0-14.36,15.95-25.93,29.87-25.93S150.2,43.9,150.2,58.26Z"/><ellipse class="cls-1" cx="29.4" cy="20.69" rx="15.92" ry="16.54"/><path class="cls-1" d="M58.79,58.26a41.22,41.22,0,0,1-28.93,12C16,70.3,5.13,63.81,0,58.26,0,43.9,16,32.33,29.86,32.33S58.79,43.9,58.79,58.26Z"/></g></g></svg>